<svg xmlns="http://www.w3.org/2000/svg" viewBox="0 0 1600 720" preserveAspectRatio="xMidYMid slice">
  <defs>
    <linearGradient id="bg" x1="0" x2="1" y1="0" y2="1">
      <stop offset="0" stop-color="#f7efe1"/>
      <stop offset="0.55" stop-color="#f4ecdf"/>
      <stop offset="1" stop-color="#efe4d0"/>
    </linearGradient>
    <linearGradient id="fade" x1="0" x2="1">
      <stop offset="0" stop-color="#f7efe1" stop-opacity="0.96"/>
      <stop offset="0.55" stop-color="#f7efe1" stop-opacity="0.74"/>
      <stop offset="1" stop-color="#f7efe1" stop-opacity="0.90"/>
    </linearGradient>
    <filter id="soft" x="-20%" y="-20%" width="140%" height="140%">
      <feGaussianBlur stdDeviation="1.2"/>
    </filter>
  </defs>
  <rect width="1600" height="720" fill="url(#bg)"/>
  <g opacity="0.23" stroke="#4f5f3a" fill="none" stroke-width="2.4" filter="url(#soft)">
    <path d="M170 300 L360 120 L470 300 Z"/>
    <path d="M390 300 L570 70 L760 300 Z"/>
    <path d="M720 300 L890 120 L1010 300 Z"/>
    <path d="M990 300 L1160 80 L1350 300 Z"/>
    <path d="M1260 300 L1435 150 L1540 300 Z"/>
    <path d="M360 120 L405 225 L450 170 L520 260 L570 70"/>
    <path d="M1160 80 L1210 205 L1270 150 L1330 260"/>
  </g>
  <g transform="translate(350 330)" opacity="0.58">
    <rect x="0" y="0" width="880" height="88" rx="12" fill="#c95e59" stroke="#6f3f37" stroke-width="3"/>
    <rect x="22" y="18" width="80" height="38" rx="5" fill="#f4e8d8" opacity="0.75"/>
    <rect x="124" y="18" width="80" height="38" rx="5" fill="#f4e8d8" opacity="0.75"/>
    <rect x="226" y="18" width="80" height="38" rx="5" fill="#f4e8d8" opacity="0.75"/>
    <rect x="328" y="18" width="80" height="38" rx="5" fill="#f4e8d8" opacity="0.75"/>
    <rect x="430" y="18" width="80" height="38" rx="5" fill="#f4e8d8" opacity="0.75"/>
    <rect x="532" y="18" width="80" height="38" rx="5" fill="#f4e8d8" opacity="0.75"/>
    <rect x="634" y="18" width="80" height="38" rx="5" fill="#f4e8d8" opacity="0.75"/>
    <rect x="736" y="18" width="80" height="38" rx="5" fill="#f4e8d8" opacity="0.75"/>
    <path d="M835 0 C885 18 912 52 880 88 L840 88 Z" fill="#c95e59" stroke="#6f3f37" stroke-width="3"/>
    <circle cx="135" cy="92" r="18" fill="#31342d"/>
    <circle cx="690" cy="92" r="18" fill="#31342d"/>
    <path d="M-140 108 H1040" stroke="#8f826b" stroke-width="5"/>
    <path d="M-140 125 H1040" stroke="#8f826b" stroke-width="2" opacity="0.8"/>
  </g>
  <g opacity="0.17" stroke="#9a8b70" stroke-width="3" fill="none">
    <path d="M140 520 C250 470 330 515 420 485 S620 465 700 505 S890 525 1010 490 S1240 455 1460 520"/>
    <path d="M120 590 C290 535 420 610 560 560 S820 530 960 585 S1190 640 1470 570"/>
  </g>
  <rect width="1600" height="720" fill="url(#fade)"/>
</svg>
